<svg width="496" height="105" viewBox="0 0 496 105" fill="none" xmlns="http://www.w3.org/2000/svg">
<path fill-rule="evenodd" clip-rule="evenodd" d="M4.5 0.300537C2.29086 0.300537 0.5 2.0914 0.5 4.30054V100.411C0.5 102.621 2.29085 104.411 4.49999 104.411H491.5C493.709 104.411 495.5 102.621 495.5 100.411V4.30054C495.5 2.0914 493.709 0.300537 491.5 0.300537H4.5ZM35.9861 62.8361L32.5346 74.8187H41.9774L45.4289 62.8361H54.0902L50.6387 74.8187H60.0164L63.4679 62.8361H72.3246V55.4121H65.5518L67.5055 48.6393H75.5807V41.2154H69.5894L73.041 29.2328H63.6633L60.2118 41.2154H51.5504L55.0019 29.2328H45.5592L42.1076 41.2154H33.3161V48.6393H40.0237L38.07 55.4121H30.0599V62.8361H35.9861ZM56.1742 55.4121H47.5128L49.4665 48.6393H58.1278L56.1742 55.4121ZM81.2357 29.2328V74.8187H92.4369V56.9751H111.192V74.8187H122.393V29.2328H111.192V46.7508H92.4369V29.2328H81.2357ZM133.287 74.0372C135.197 74.9489 137.368 75.4048 139.799 75.4048C141.666 75.4048 143.359 75.2094 144.879 74.8187C146.442 74.3845 147.918 73.6899 149.307 72.7348V74.8187H159.727V52.7421C159.727 48.6176 158.403 45.4266 155.754 43.169C153.106 40.868 149.394 39.7175 144.618 39.7175C141.97 39.7175 139.322 40.0431 136.674 40.6944C134.069 41.3022 131.355 42.2356 128.533 43.4946L132.31 51.2443C134.568 50.2891 136.522 49.5945 138.171 49.1603C139.865 48.7262 141.384 48.5091 142.73 48.5091C144.901 48.5091 146.529 48.9433 147.614 49.8116C148.743 50.6364 149.307 51.9172 149.307 53.6538V55.347C146.789 54.6958 144.184 54.3701 141.493 54.3701C137.021 54.3701 133.526 55.2819 131.008 57.1053C128.533 58.8853 127.296 61.4251 127.296 64.7247C127.296 66.8086 127.817 68.6537 128.859 70.2601C129.944 71.8665 131.42 73.1255 133.287 74.0372ZM138.757 67.0691C137.802 66.4613 137.325 65.6147 137.325 64.5293C137.325 63.4439 137.824 62.619 138.823 62.0546C139.821 61.4468 141.232 61.1429 143.056 61.1429C144.141 61.1429 145.205 61.208 146.247 61.3383C147.289 61.4685 148.309 61.6639 149.307 61.9244V66.3527C148.396 66.9171 147.375 67.3296 146.247 67.5901C145.161 67.8506 143.989 67.9808 142.73 67.9808C141.037 67.9808 139.713 67.6769 138.757 67.0691ZM165.998 29.2328V74.8187H176.547V27.6047L165.998 29.2328ZM187.535 74.0372C189.445 74.9489 191.616 75.4048 194.047 75.4048C195.914 75.4048 197.607 75.2094 199.127 74.8187C200.69 74.3845 202.166 73.6899 203.555 72.7348V74.8187H213.975V52.7421C213.975 48.6176 212.651 45.4266 210.002 43.169C207.354 40.868 203.642 39.7175 198.866 39.7175C196.218 39.7175 193.57 40.0431 190.921 40.6944C188.316 41.3022 185.603 42.2356 182.781 43.4946L186.558 51.2443C188.816 50.2891 190.769 49.5945 192.419 49.1603C194.112 48.7262 195.632 48.5091 196.978 48.5091C199.148 48.5091 200.777 48.9433 201.862 49.8116C202.991 50.6364 203.555 51.9172 203.555 53.6538V55.347C201.037 54.6958 198.432 54.3701 195.74 54.3701C191.269 54.3701 187.774 55.2819 185.256 57.1053C182.781 58.8853 181.544 61.4251 181.544 64.7247C181.544 66.8086 182.065 68.6537 183.107 70.2601C184.192 71.8665 185.668 73.1255 187.535 74.0372ZM193.005 67.0691C192.05 66.4613 191.573 65.6147 191.573 64.5293C191.573 63.4439 192.072 62.619 193.07 62.0546C194.069 61.4468 195.48 61.1429 197.303 61.1429C198.389 61.1429 199.452 61.208 200.494 61.3383C201.536 61.4685 202.557 61.6639 203.555 61.9244V66.3527C202.643 66.9171 201.623 67.3296 200.494 67.5901C199.409 67.8506 198.237 67.9808 196.978 67.9808C195.285 67.9808 193.96 67.6769 193.005 67.0691ZM220.245 29.2328V74.8187H230.795V27.6047L220.245 29.2328ZM241.783 74.0372C243.693 74.9489 245.864 75.4048 248.295 75.4048C250.162 75.4048 251.855 75.2094 253.375 74.8187C254.937 74.3845 256.414 73.6899 257.803 72.7348V74.8187H268.223V52.7421C268.223 48.6176 266.898 45.4266 264.25 43.169C261.602 40.868 257.89 39.7175 253.114 39.7175C250.466 39.7175 247.817 40.0431 245.169 40.6944C242.564 41.3022 239.851 42.2356 237.029 43.4946L240.806 51.2443C243.063 50.2891 245.017 49.5945 246.667 49.1603C248.36 48.7262 249.88 48.5091 251.225 48.5091C253.396 48.5091 255.024 48.9433 256.11 49.8116C257.238 50.6364 257.803 51.9172 257.803 53.6538V55.347C255.285 54.6958 252.68 54.3701 249.988 54.3701C245.516 54.3701 242.021 55.2819 239.503 57.1053C237.029 58.8853 235.791 61.4251 235.791 64.7247C235.791 66.8086 236.312 68.6537 237.354 70.2601C238.44 71.8665 239.916 73.1255 241.783 74.0372ZM247.253 67.0691C246.298 66.4613 245.82 65.6147 245.82 64.5293C245.82 63.4439 246.32 62.619 247.318 62.0546C248.317 61.4468 249.728 61.1429 251.551 61.1429C252.636 61.1429 253.7 61.208 254.742 61.3383C255.784 61.4685 256.804 61.6639 257.803 61.9244V66.3527C256.891 66.9171 255.871 67.3296 254.742 67.5901C253.657 67.8506 252.484 67.9808 251.225 67.9808C249.532 67.9808 248.208 67.6769 247.253 67.0691ZM274.493 40.3688V74.8187H285.043V51.5047C285.781 50.6364 286.649 49.9635 287.648 49.4859C288.69 49.0084 289.884 48.7696 291.23 48.7696C293.14 48.7696 294.659 49.334 295.788 50.4628C296.917 51.5916 297.481 53.1111 297.481 55.0214V74.8187H308.031V53.5887C308.031 50.8535 307.445 48.444 306.273 46.3601C305.101 44.2761 303.473 42.6481 301.389 41.4758C299.348 40.3036 296.982 39.7175 294.29 39.7175C290.73 39.7175 287.648 40.7161 285.043 42.7132V40.3688H274.493ZM314.239 67.6552V74.8187H346.996V66.2876L327.264 66.3527L340.419 53.6538C341.808 52.3079 342.937 51.0055 343.805 49.7464C344.673 48.4874 345.303 47.2066 345.694 45.9042C346.128 44.5583 346.345 43.169 346.345 41.7363C346.345 39.088 345.672 36.787 344.326 34.8333C342.98 32.8362 341.092 31.295 338.66 30.2096C336.273 29.0808 333.451 28.5164 330.194 28.5164C327.025 28.5164 323.964 29.1459 321.012 30.405C318.103 31.664 315.346 33.5309 312.742 36.0055L318.342 42.8434C320.426 40.8029 322.358 39.3702 324.138 38.5453C325.918 37.677 327.828 37.2429 329.869 37.2429C331.779 37.2429 333.364 37.7421 334.623 38.7407C335.925 39.6958 336.576 40.9114 336.576 42.3876C336.576 43.0822 336.468 43.7768 336.251 44.4715C336.034 45.1661 335.708 45.8608 335.274 46.5554C334.84 47.2066 334.254 47.8796 333.516 48.5742L314.239 67.6552ZM360.928 72.6045C364.054 74.5582 367.679 75.535 371.804 75.535C375.928 75.535 379.532 74.5582 382.614 72.6045C385.74 70.6508 388.15 67.9157 389.843 64.3991C391.579 60.839 392.448 56.7146 392.448 52.0257C392.448 47.2935 391.579 43.169 389.843 39.6524C388.15 36.1358 385.74 33.4006 382.614 31.4469C379.532 29.4933 375.928 28.5164 371.804 28.5164C367.679 28.5164 364.054 29.4933 360.928 31.4469C357.846 33.4006 355.436 36.1358 353.7 39.6524C352.007 43.169 351.16 47.2935 351.16 52.0257C351.16 56.7146 352.007 60.839 353.7 64.3991C355.436 67.9157 357.846 70.6508 360.928 72.6045ZM377.274 64.7247C375.755 65.8535 373.931 66.4179 371.804 66.4179C369.676 66.4179 367.831 65.8535 366.268 64.7247C364.749 63.5525 363.555 61.881 362.687 59.7102C361.862 57.5395 361.449 54.978 361.449 52.0257C361.449 49.0301 361.862 46.4686 362.687 44.3412C363.555 42.1705 364.749 40.5207 366.268 39.3919C367.831 38.2197 369.676 37.6336 371.804 37.6336C373.931 37.6336 375.755 38.2197 377.274 39.3919C378.837 40.5207 380.031 42.1705 380.856 44.3412C381.724 46.4686 382.158 49.0301 382.158 52.0257C382.158 54.978 381.724 57.5395 380.856 59.7102C380.031 61.881 378.837 63.5525 377.274 64.7247ZM396.597 67.6552V74.8187H429.354V66.2876L409.621 66.3527L422.776 53.6538C424.165 52.3079 425.294 51.0055 426.163 49.7464C427.031 48.4874 427.66 47.2066 428.051 45.9042C428.485 44.5583 428.702 43.169 428.702 41.7363C428.702 39.088 428.029 36.787 426.684 34.8333C425.338 32.8362 423.449 31.295 421.018 30.2096C418.63 29.0808 415.808 28.5164 412.552 28.5164C409.383 28.5164 406.322 29.1459 403.37 30.405C400.461 31.664 397.704 33.5309 395.099 36.0055L400.7 42.8434C402.783 40.8029 404.715 39.3702 406.495 38.5453C408.275 37.677 410.186 37.2429 412.226 37.2429C414.137 37.2429 415.721 37.7421 416.98 38.7407C418.283 39.6958 418.934 40.9114 418.934 42.3876C418.934 43.0822 418.825 43.7768 418.608 44.4715C418.391 45.1661 418.066 45.8608 417.631 46.5554C417.197 47.2066 416.611 47.8796 415.873 48.5742L396.597 67.6552ZM434.755 67.6552V74.8187H467.511V66.2876L447.779 66.3527L460.934 53.6538C462.323 52.3079 463.452 51.0055 464.32 49.7464C465.189 48.4874 465.818 47.2066 466.209 45.9042C466.643 44.5583 466.86 43.169 466.86 41.7363C466.86 39.088 466.187 36.787 464.841 34.8333C463.495 32.8362 461.607 31.295 459.176 30.2096C456.788 29.0808 453.966 28.5164 450.71 28.5164C447.54 28.5164 444.48 29.1459 441.527 30.405C438.619 31.664 435.862 33.5309 433.257 36.0055L438.857 42.8434C440.941 40.8029 442.873 39.3702 444.653 38.5453C446.433 37.677 448.344 37.2429 450.384 37.2429C452.294 37.2429 453.879 37.7421 455.138 38.7407C456.44 39.6958 457.092 40.9114 457.092 42.3876C457.092 43.0822 456.983 43.7768 456.766 44.4715C456.549 45.1661 456.223 45.8608 455.789 46.5554C455.355 47.2066 454.769 47.8796 454.031 48.5742L434.755 67.6552Z" fill="white"/>
</svg>
