<svg width="185" height="28" viewBox="0 0 185 28" fill="none" xmlns="http://www.w3.org/2000/svg">
<path d="M53.8217 4.05137C54.4534 4.12954 55.0854 4.20729 55.559 4.3242C56.6648 4.63618 56.7439 5.18169 56.7834 6.27313C56.8625 7.5595 56.8625 9.70337 56.8625 13.9907C56.8625 20.8506 56.7439 23.5014 56.6648 24.4369C56.5861 25.5673 56.3096 25.9961 55.559 26.1907C55.0064 26.3467 54.6509 26.3467 53.5453 26.5026C53.4267 26.5806 53.4267 27.0873 53.5453 27.1657C55.1646 27.1657 56.9415 27.0482 58.8763 27.0482C61.4039 27.0482 65.9844 27.2042 68.6302 27.2042C70.4073 27.2042 70.8418 27.0482 71.0392 26.7363C71.7501 25.6452 72.8557 21.6691 73.0534 20.4611C73.0138 20.3052 72.5003 20.1882 72.3818 20.3052C71.671 22.0201 70.4073 24.0079 69.6174 24.7879C68.8279 25.6062 68.2355 25.8009 67.4455 25.8009C65.9057 25.8789 62.8255 25.8009 61.9566 25.5673C61.5221 25.4892 61.2852 25.0603 61.2457 24.3979C61.1667 23.1115 61.1275 18.0057 61.1667 14.3415C61.2063 10.8338 61.2063 6.93555 61.2457 6.15622C61.2852 5.10366 61.3644 4.63618 62.2331 4.36321C62.6672 4.20729 62.9832 4.16856 63.8519 4.05137C63.9707 3.97348 63.9311 3.46671 63.8519 3.38882C62.865 3.42783 61.2456 3.50572 58.8369 3.50572C55.8751 3.50572 54.967 3.38882 53.8611 3.38882C53.7821 3.42783 53.7426 3.97348 53.8217 4.05137ZM82.7276 17.2258C82.7276 17.6158 82.7667 17.7328 82.7276 18.1614C82.7276 18.2784 82.53 18.5512 82.4511 18.5901C80.8715 19.2917 76.251 20.422 75.3427 21.0067C75.1058 21.4355 74.7504 22.605 74.7504 23.0339C74.7504 24.5148 75.3032 25.8399 76.1327 26.6194C76.7646 27.2042 77.5148 27.516 78.344 27.516C79.0154 27.516 80.7134 26.8922 82.4904 25.5673C82.4904 25.5673 82.6487 25.5283 82.6487 25.6062C82.6881 25.8009 82.7667 26.1519 82.846 26.3467C83.1223 27.0094 83.7542 27.516 85.0179 27.516C86.4 27.516 87.7428 27.0094 88.6905 25.9572C88.7693 25.8789 88.888 25.1773 88.888 25.0603C88.3747 25.2162 88.0981 25.2552 87.7031 25.2552C86.6367 25.2552 86.4 24.1639 86.4 23.5404C86.4 22.0201 86.479 19.4866 86.479 17.6158C86.479 16.3685 86.2817 14.7315 85.6102 13.6397C84.7811 12.3537 83.3592 11.4962 81.4243 11.4962C80.3975 11.4962 77.8702 12.5485 76.0141 13.8739C75.8564 14.0296 75.2641 15.6279 75.2641 15.8619C75.2641 16.0566 75.8564 16.5633 76.0141 16.4854C76.251 15.8226 77.0801 14.3415 77.3962 14.1076C77.6726 13.8739 78.3835 13.6397 79.2523 13.6397C80.3187 13.6397 81.5034 14.1076 82.1351 15.0823C82.5694 15.7057 82.7276 16.4464 82.7276 17.2258ZM82.6881 19.5253C82.6881 20.1882 82.6881 22.8776 82.6487 24.086C82.6487 24.4759 82.53 24.7487 82.3326 24.9044C82.0167 25.1382 81.5034 25.2162 81.1084 25.2162C79.7263 25.2162 78.5021 24.0469 78.5021 22.215C78.5021 21.7475 78.6995 20.9289 78.8182 20.8117C79.1732 20.422 81.1874 19.8372 82.5694 19.3697C82.6089 19.3697 82.6881 19.4866 82.6881 19.5253ZM91.0991 20.8506C90.9805 20.7337 90.4672 20.8506 90.3882 21.0067C90.5069 22.1761 90.9412 25.9961 91.3359 26.6194C92.0469 27.0873 94.4951 27.7499 96.8254 27.7499C102.354 27.7499 105.592 24.7487 105.592 20.5779C105.592 17.8885 104.012 16.1344 101.564 14.4976C100.063 13.5232 98.8395 12.8995 97.2987 11.7303C95.7195 10.5607 94.8506 9.27448 94.8506 7.48147C94.8506 5.33802 96.312 3.66178 98.76 3.66178C99.9842 3.66178 100.892 3.85672 101.801 4.48026C102.867 5.14282 103.302 6.27313 103.538 8.72883C103.617 8.80686 104.131 8.76785 104.21 8.65066C104.368 6.39003 104.644 4.83084 104.881 3.38882C103.38 3.31107 101.761 2.80402 99.1551 2.80402C94.8506 2.80402 91.2965 5.2207 91.2965 9.50815C91.2965 12.9385 93.3104 14.8092 97.1413 17.2649C100.34 19.3307 101.604 20.6951 101.604 23.0339C101.604 25.4109 100.063 26.8147 97.8912 26.8147C96.4303 26.8147 95.1662 26.5417 94.1398 25.8399C92.7181 24.8655 91.8493 23.5794 91.0991 20.8506ZM116.136 17.2258C116.136 17.6158 116.175 17.7328 116.136 18.1614C116.136 18.2784 115.938 18.5512 115.859 18.5901C114.28 19.2917 109.659 20.422 108.751 21.0067C108.514 21.4355 108.158 22.605 108.158 23.0339C108.158 24.5148 108.712 25.8399 109.541 26.6194C110.173 27.2042 110.923 27.516 111.752 27.516C112.423 27.516 114.121 26.8922 115.899 25.5673C115.899 25.5673 116.057 25.5283 116.057 25.6062C116.096 25.8009 116.175 26.1519 116.254 26.3467C116.53 27.0094 117.162 27.516 118.426 27.516C119.808 27.516 121.151 27.0094 122.099 25.9572C122.177 25.8789 122.296 25.1773 122.296 25.0603C121.783 25.2162 121.506 25.2552 121.111 25.2552C120.045 25.2552 119.808 24.1639 119.808 23.5404C119.808 22.0201 119.887 19.4866 119.887 17.6158C119.887 16.3685 119.69 14.7315 119.019 13.6397C118.189 12.3537 116.768 11.4962 114.832 11.4962C113.806 11.4962 111.278 12.5485 109.422 13.8739C109.264 14.0296 108.672 15.6279 108.672 15.8619C108.672 16.0566 109.264 16.5633 109.422 16.4854C109.659 15.8226 110.489 14.3415 110.805 14.1076C111.081 13.8739 111.792 13.6397 112.66 13.6397C113.727 13.6397 114.911 14.1076 115.543 15.0823C115.978 15.7057 116.136 16.4464 116.136 17.2258ZM116.096 19.5253C116.096 20.1882 116.096 22.8776 116.057 24.086C116.057 24.4759 115.938 24.7487 115.741 24.9044C115.425 25.1382 114.911 25.2162 114.517 25.2162C113.134 25.2162 111.91 24.0469 111.91 22.215C111.91 21.7475 112.108 20.9289 112.226 20.8117C112.582 20.422 114.596 19.8372 115.978 19.3697C116.017 19.3697 116.096 19.4866 116.096 19.5253ZM122.889 27.1657C123.481 27.1657 124.784 27.0482 126.838 27.0482C128.891 27.0482 130.589 27.1657 131.063 27.1657C131.142 27.0482 131.182 26.6194 131.142 26.5026C130.668 26.4247 130.273 26.3857 129.839 26.1907C129.246 25.9182 129.128 25.6841 129.049 24.4759C128.97 22.9556 128.97 20.0325 128.97 13.4061C128.97 9.97619 128.97 6.93555 129.009 4.98703C129.009 2.53147 129.128 1.24523 129.325 0.816486C129.325 0.738459 129.207 0.621415 129.128 0.582538C127.785 1.20636 124.824 1.90751 122.928 2.02483C122.849 2.14146 122.81 2.53147 122.928 2.60936C123.599 2.68725 124.034 2.80402 124.35 2.96021C124.784 3.11586 124.824 3.58375 124.863 4.01236C125.021 5.61057 125.021 10.1318 125.021 14.0686C125.021 17.7328 124.982 22.7605 124.942 24.4759C124.903 25.6841 124.705 25.9572 124.271 26.1519C123.836 26.3467 123.56 26.3857 122.889 26.5026C122.81 26.6194 122.81 27.0482 122.889 27.1657ZM132.208 27.1657C132.8 27.1657 134.103 27.0482 136.157 27.0482C138.21 27.0482 139.909 27.1657 140.382 27.1657C140.461 27.0482 140.501 26.6194 140.461 26.5026C139.987 26.4247 139.592 26.3857 139.158 26.1907C138.565 25.9182 138.448 25.6841 138.368 24.4759C138.289 22.9556 138.289 20.0325 138.289 13.4061C138.289 9.97619 138.289 6.93555 138.329 4.98703C138.329 2.53147 138.448 1.24523 138.645 0.816486C138.645 0.738459 138.526 0.621415 138.448 0.582538C137.104 1.20636 134.143 1.90751 132.247 2.02483C132.169 2.14146 132.129 2.53147 132.247 2.60936C132.919 2.68725 133.353 2.80402 133.669 2.96021C134.103 3.11586 134.143 3.58375 134.182 4.01236C134.34 5.61057 134.34 10.1318 134.34 14.0686C134.34 17.7328 134.301 22.7605 134.262 24.4759C134.222 25.6841 134.024 25.9572 133.59 26.1519C133.156 26.3467 132.879 26.3857 132.208 26.5026C132.129 26.6194 132.129 27.0482 132.208 27.1657ZM147.727 6.15622C147.727 5.88354 147.648 5.29873 147.411 4.98703C147.253 4.86985 146.74 4.55829 145.99 4.55829C145.318 4.55829 144.252 4.90886 143.897 5.2207C143.659 5.53268 143.581 6.19551 143.659 6.663C143.699 7.16963 143.975 7.94937 144.608 8.18304C145.081 8.37798 146.503 8.14403 146.819 7.98838C147.293 7.63739 147.727 6.89667 147.727 6.15622ZM149.82 26.5026C149.149 26.4247 148.794 26.3075 148.517 26.2298C148.004 26.0347 147.767 25.7619 147.727 24.7097C147.688 22.9949 147.688 19.9932 147.688 17.9667C147.688 15.7447 147.767 12.3537 147.767 11.3792C146.029 12.1977 142.988 12.6656 142.001 12.7044C141.961 12.7823 141.961 13.2891 142.001 13.3671C142.633 13.5622 142.988 13.6788 143.344 14.0296C143.581 14.3415 143.62 14.7315 143.62 15.0434C143.699 15.6279 143.699 17.3039 143.699 18.7457C143.699 20.6951 143.659 23.6962 143.62 24.5925C143.581 25.5673 143.423 26.0347 142.87 26.2298C142.514 26.3857 142.001 26.4637 141.528 26.5026C141.448 26.5417 141.448 27.0873 141.528 27.1657C142.356 27.1657 143.739 27.0482 145.714 27.0482C147.253 27.0482 148.714 27.1657 149.662 27.1657C149.82 27.0873 149.82 26.6194 149.82 26.5026ZM159.258 17.2258C159.258 17.6158 159.298 17.7328 159.258 18.1614C159.258 18.2784 159.061 18.5512 158.982 18.5901C157.402 19.2917 152.782 20.422 151.874 21.0067C151.637 21.4355 151.281 22.605 151.281 23.0339C151.281 24.5148 151.834 25.8399 152.664 26.6194C153.295 27.2042 154.046 27.516 154.875 27.516C155.546 27.516 157.245 26.8922 159.021 25.5673C159.021 25.5673 159.179 25.5283 159.179 25.6062C159.219 25.8009 159.298 26.1519 159.377 26.3467C159.653 27.0094 160.285 27.516 161.549 27.516C162.931 27.516 164.274 27.0094 165.221 25.9572C165.3 25.8789 165.419 25.1773 165.419 25.0603C164.905 25.2162 164.629 25.2552 164.234 25.2552C163.168 25.2552 162.931 24.1639 162.931 23.5404C162.931 22.0201 163.01 19.4866 163.01 17.6158C163.01 16.3685 162.812 14.7315 162.141 13.6397C161.312 12.3537 159.89 11.4962 157.955 11.4962C156.928 11.4962 154.401 12.5485 152.545 13.8739C152.387 14.0296 151.795 15.6279 151.795 15.8619C151.795 16.0566 152.387 16.5633 152.545 16.4854C152.782 15.8226 153.611 14.3415 153.927 14.1076C154.204 13.8739 154.914 13.6397 155.783 13.6397C156.85 13.6397 158.034 14.1076 158.666 15.0823C159.1 15.7057 159.258 16.4464 159.258 17.2258ZM159.219 19.5253C159.219 20.1882 159.219 22.8776 159.179 24.086C159.179 24.4759 159.061 24.7487 158.863 24.9044C158.547 25.1382 158.034 25.2162 157.639 25.2162C156.257 25.2162 155.033 24.0469 155.033 22.215C155.033 21.7475 155.23 20.9289 155.349 20.8117C155.704 20.422 157.718 19.8372 159.1 19.3697C159.14 19.3697 159.219 19.4866 159.219 19.5253ZM166.327 26.5026C166.248 26.6584 166.248 27.0482 166.327 27.1657C167.117 27.1261 167.788 27.0482 170.276 27.0482C172.092 27.0482 173.396 27.1261 174.58 27.1657C174.62 27.0482 174.659 26.5806 174.62 26.5026C173.988 26.4247 173.672 26.3467 173.317 26.2298C172.803 26.1129 172.527 25.8789 172.448 24.6708C172.369 23.0339 172.369 17.9667 172.369 15.511C172.369 15.0823 172.527 14.8092 172.724 14.6535C173.435 14.1076 174.383 13.8739 175.054 13.8739C175.884 13.8739 176.436 14.0296 176.95 14.4196C177.621 14.9262 177.937 15.7447 178.095 16.4854C178.411 18.0057 178.332 23.4235 178.253 24.9044C178.174 25.723 178.055 26.1129 177.423 26.2688C177.147 26.3467 176.831 26.4247 176.239 26.5026C176.199 26.5417 176.16 27.0873 176.239 27.1657C177.384 27.1261 178.411 27.0482 180.543 27.0482C182.873 27.0482 183.663 27.1657 184.255 27.1657C184.374 27.0482 184.413 26.6194 184.413 26.5026C183.584 26.3857 183.189 26.1907 182.715 25.9182C182.478 25.7619 182.36 25.4892 182.36 25.2162C182.281 23.9689 182.32 19.8372 182.32 18.0057C182.32 16.2126 182.123 14.6924 181.412 13.5622C180.622 12.2368 179.438 11.4962 177.7 11.4962C176.476 11.4962 174.62 12.3147 172.527 13.9517C172.487 14.0296 172.369 13.9907 172.369 13.8739C172.408 13.2112 172.448 12.3147 172.527 11.6129C172.527 11.5352 172.448 11.4182 172.408 11.3792C171.184 12.0812 168.775 12.7432 166.682 12.9775C166.603 13.0552 166.564 13.4842 166.564 13.5622C168.143 14.0686 168.222 14.6146 168.301 15.0044C168.341 15.3549 168.381 17.4985 168.381 18.7852C168.381 20.3442 168.381 23.4624 168.301 24.6708C168.262 25.6452 167.986 26.1129 167.512 26.2688C167.077 26.3857 166.682 26.4637 166.327 26.5026Z" fill="#003300"/>
<path d="M6.00035 26.5409C5.88162 26.6578 5.88162 27.0085 6.00035 27.1643C7.02721 27.2033 9.43572 27.0474 11.6078 27.0474C13.1479 27.0474 15.3991 27.1643 16.7811 27.1643C16.8601 27.0864 16.8994 26.6578 16.8601 26.5409C15.952 26.4629 15.2804 26.4234 14.6881 26.2289C13.859 25.995 13.3848 25.7613 13.306 23.5786C13.1876 21.5126 13.1479 10.3261 13.1479 4.79126C13.1479 4.67436 13.2271 4.47942 13.3453 4.44041C14.1748 4.4014 20.1378 4.36238 21.5989 4.44041C21.7963 4.47942 21.9544 4.71323 21.9544 4.90803C21.9936 6.2723 21.9936 7.79262 21.9936 17.8098C21.9936 18.7839 21.9544 23.5396 21.9148 24.4751C21.8753 25.6444 21.7172 26.112 21.0853 26.307C20.73 26.4234 20.3351 26.4629 19.7427 26.5409C19.6637 26.6964 19.6242 27.0085 19.7427 27.1643C20.4143 27.1643 21.8356 27.0474 23.1782 27.0474C24.7975 27.0474 26.6536 27.1253 27.1273 27.1253C27.1668 27.0474 27.246 26.6578 27.1273 26.5409C26.4954 26.4629 26.2982 26.4234 25.8244 26.307C25.0739 26.112 24.8369 25.7613 24.7975 24.5528C24.7185 23.5001 24.6789 18.1605 24.6789 15.432C24.6789 15.1985 24.8766 14.8086 25.1925 14.5356C26.0216 13.8339 27.0483 13.4833 28.1543 13.4833C30.6026 13.4833 31.5502 15.1593 31.7873 16.2896C32.1425 18.0828 32.0242 22.0581 31.9846 24.1241C31.9451 25.8391 31.7873 25.995 31.3132 26.2289C31.0368 26.3458 30.4446 26.4234 29.7731 26.5409C29.6943 26.6578 29.6548 27.0864 29.7731 27.1643C30.3259 27.1253 31.9846 27.0864 33.2879 27.0474C35.0254 27.0085 36.6048 27.1643 37.1184 27.1643C37.197 27.1253 37.3158 26.6578 37.2762 26.5409C36.1707 26.4234 35.6178 26.307 35.1042 25.9171C34.8278 25.6833 34.8672 25.3324 34.8672 25.2154C34.8278 23.5001 34.7885 19.5638 34.7885 17.5757C34.7885 13.7172 33.1692 11.6123 30.2472 11.6123C28.7466 11.6123 26.9299 12.3919 24.8369 13.9901C24.7579 14.0287 24.6789 13.9901 24.6789 13.9512V4.28477C24.7185 1.20511 24.7579 0.581706 24.7579 0.425925C24.7579 0.308743 24.6396 0.230713 24.5606 0.230713C24.4419 0.230713 23.455 0.698472 22.1121 0.737624C22.0331 0.737624 21.9148 0.932561 21.9148 1.01045V3.07629C21.9148 3.19305 21.7963 3.23193 21.7567 3.23193L4.30235 3.27108C3.35454 3.27108 2.09065 3.03741 1.37986 2.72543C1.26156 2.68642 1.10345 2.72543 1.02453 2.72543C0.94562 4.32337 0.629682 6.8571 0.353271 8.45517C0.392799 8.57194 0.906093 8.68898 1.02453 8.61095C1.5775 7.12978 2.09065 6.07736 2.68314 5.2979C2.99908 4.86929 3.4336 4.44041 4.22316 4.44041C5.09192 4.36238 9.08053 4.36238 9.79132 4.4014C9.87037 4.4014 10.0285 4.55745 10.0285 4.67436C10.0285 10.9105 9.98896 21.6687 9.94929 23.3836C9.83071 25.2544 9.67288 26.0343 8.52785 26.1899C8.01413 26.307 7.2641 26.4234 6.00035 26.5409ZM51.7293 23.6953C50.3075 25.0206 48.9254 25.3324 47.4247 25.3324C45.7663 25.3324 44.2658 24.7869 43.081 23.3446C42.2124 22.2922 41.6591 20.5771 41.6199 19.057C41.6199 18.862 41.6987 18.6283 41.8568 18.6283C44.8977 18.5504 50.3865 18.2384 51.9267 17.7319C52.0453 17.6929 52.1241 17.3419 52.0845 17.2253C51.7293 17.186 51.6501 17.0301 51.6108 16.9134C51.2948 15.0423 50.0706 11.6123 46.3983 11.6123C45.3713 11.6123 43.4363 12.1578 42.3702 12.8594C40.2772 14.1458 38.9739 16.5236 38.9739 19.6804C38.9739 21.7854 39.527 24.046 41.0277 25.6444C42.0937 26.8136 43.6733 27.5152 45.6477 27.5152C47.5829 27.5152 49.9128 26.5018 51.8081 24.4751C51.8476 24.397 51.9267 24.0074 51.8872 23.8121C51.8872 23.7345 51.7689 23.6953 51.7293 23.6953ZM45.1346 12.6256C47.4247 12.6256 48.5304 15.0813 48.7676 17.0691C48.7676 17.2253 48.6095 17.3419 48.5304 17.3811C47.7012 17.5757 42.9229 17.7319 41.8568 17.6539C41.8174 17.6539 41.7383 17.537 41.7383 17.4199C41.8963 14.3021 43.3574 12.6256 45.1346 12.6256Z" fill="#003300"/>
</svg>
