<svg width="19" height="19" viewBox="0 0 19 19" fill="none" xmlns="http://www.w3.org/2000/svg">
<circle cx="9.5" cy="9.5" r="9.5" fill="#C28124"/>
<path d="M13.9951 7.61367C14.0015 7.7089 14.0015 7.80413 14.0015 7.90023C14.0015 10.8286 11.8239 14.206 7.842 14.206V14.2042C6.66573 14.206 5.5139 13.861 4.52368 13.2107C4.69472 13.2317 4.86662 13.2423 5.03894 13.2427C6.01373 13.2436 6.96066 12.9087 7.72754 12.2922C6.80119 12.2742 5.98887 11.6558 5.70509 10.7531C6.02959 10.8172 6.36395 10.8041 6.68245 10.715C5.67251 10.5061 4.94592 9.59767 4.94592 8.5427C4.94592 8.53304 4.94592 8.52383 4.94592 8.51461C5.24684 8.6862 5.58378 8.78143 5.92842 8.79196C4.97721 8.14116 4.684 6.8457 5.25842 5.83285C6.35752 7.21739 7.97917 8.05909 9.71999 8.14818C9.54552 7.37845 9.78386 6.57186 10.3463 6.03077C11.2182 5.1917 12.5895 5.23471 13.4091 6.12687C13.8939 6.02901 14.3586 5.84689 14.7838 5.58885C14.6222 6.10186 14.284 6.53763 13.8322 6.81454C14.2613 6.76275 14.6805 6.64514 15.0753 6.46566C14.7847 6.91152 14.4186 7.2999 13.9951 7.61367Z" fill="white"/>
</svg>
